<?xml version="1.0" encoding="UTF-8"?>
<mxfile>
  <diagram name="LibraryActivityDiagram">
    <mxGraphModel dx="1467" dy="781" grid="1" gridSize="10" guides="1" tooltips="1" connect="1" arrows="1" fold="1" page="1" pageScale="1" pageWidth="827" pageHeight="1169" math="0" shadow="0">
      <root>
        <mxCell id="0" />
        <mxCell id="1" parent="0" />

        <!-- Start of Process -->
        <mxCell id="Start" value="Start" style="ellipse;whiteSpace=wrap;html=1;fillColor=green;" vertex="1" parent="1">
          <mxGeometry x="100" y="50" width="80" height="40" as="geometry" />
        </mxCell>

        <!-- Check Library Card -->
        <mxCell id="CheckCard" value="Check Library Card" style="rounded=1;whiteSpace=wrap;html=1;fillColor=#D5E8D4;" vertex="1" parent="1">
          <mxGeometry x="100" y="150" width="160" height="60" as="geometry" />
        </mxCell>

        <!-- Decision: Library Card -->
        <mxCell id="CardDecision" value="Library Card?" style="rhombus;whiteSpace=wrap;html=1;fillColor=#FFE6CC;" vertex="1" parent="1">
          <mxGeometry x="150" y="250" width="120" height="80" as="geometry" />
        </mxCell>

        <!-- Create Library Card -->
        <mxCell id="CreateCard" value="Create Library Card" style="rounded=1;whiteSpace=wrap;html=1;fillColor=#D5E8D4;" vertex="1" parent="1">
          <mxGeometry x="300" y="250" width="160" height="60" as="geometry" />
        </mxCell>

        <!-- Choose Book -->
        <mxCell id="ChooseBook" value="Choose Book from Catalog" style="rounded=1;whiteSpace=wrap;html=1;fillColor=#D5E8D4;" vertex="1" parent="1">
          <mxGeometry x="150" y="400" width="200" height="60" as="geometry" />
        </mxCell>

        <!-- Decision: Book Availability -->
        <mxCell id="BookDecision" value="Book Available?" style="rhombus;whiteSpace=wrap;html=1;fillColor=#FFE6CC;" vertex="1" parent="1">
          <mxGeometry x="200" y="500" width="120" height="80" as="geometry" />
        </mxCell>

        <!-- Choose Another Book -->
        <mxCell id="ChooseAnother" value="Choose Another Book" style="rounded=1;whiteSpace=wrap;html=1;fillColor=#D5E8D4;" vertex="1" parent="1">
          <mxGeometry x="350" y="500" width="160" height="60" as="geometry" />
        </mxCell>

        <!-- Register Book Issue -->
        <mxCell id="RegisterIssue" value="Register Book Issue" style="rounded=1;whiteSpace=wrap;html=1;fillColor=#D5E8D4;" vertex="1" parent="1">
          <mxGeometry x="150" y="650" width="180" height="60" as="geometry" />
        </mxCell>

        <!-- Receive Book -->
        <mxCell id="ReceiveBook" value="Receive Book" style="rounded=1;whiteSpace=wrap;html=1;fillColor=#D5E8D4;" vertex="1" parent="1">
          <mxGeometry x="150" y="750" width="140" height="60" as="geometry" />
        </mxCell>

        <!-- End of Process -->
        <mxCell id="End" value="End" style="ellipse;whiteSpace=wrap;html=1;fillColor=red;" vertex="1" parent="1">
          <mxGeometry x="160" y="850" width="80" height="40" as="geometry" />
        </mxCell>

        <!-- Edges -->
        <mxCell id="EdgeStart" style="edgeStyle=orthogonalEdgeStyle;html=1;" edge="1" parent="1" source="Start" target="CheckCard">
          <mxGeometry relative="1" as="geometry" />
        </mxCell>
        <mxCell id="EdgeCheckCard" style="edgeStyle=orthogonalEdgeStyle;html=1;" edge="1" parent="1" source="CheckCard" target="CardDecision">
          <mxGeometry relative="1" as="geometry" />
        </mxCell>
        <mxCell id="EdgeCardYes" value="Yes" style="edgeStyle=orthogonalEdgeStyle;html=1;" edge="1" parent="1" source="CardDecision" target="ChooseBook">
          <mxGeometry relative="1" as="geometry" />
        </mxCell>
        <mxCell id="EdgeCardNo" value="No" style="edgeStyle=orthogonalEdgeStyle;html=1;" edge="1" parent="1" source="CardDecision" target="CreateCard">
          <mxGeometry relative="1" as="geometry" />
        </mxCell>
        <mxCell id="EdgeCreateCard" style="edgeStyle=orthogonalEdgeStyle;html=1;" edge="1" parent="1" source="CreateCard" target="ChooseBook">
          <mxGeometry relative="1" as="geometry" />
        </mxCell>
        <mxCell id="EdgeChooseBook" style="edgeStyle=orthogonalEdgeStyle;html=1;" edge="1" parent="1" source="ChooseBook" target="BookDecision">
          <mxGeometry relative="1" as="geometry" />
        </mxCell>
        <mxCell id="EdgeBookYes" value="Yes" style="edgeStyle=orthogonalEdgeStyle;html=1;" edge="1" parent="1" source="BookDecision" target="RegisterIssue">
          <mxGeometry relative="1" as="geometry" />
        </mxCell>
        <mxCell id="EdgeBookNo" value="No" style="edgeStyle=orthogonalEdgeStyle;html=1;" edge="1" parent="1" source="BookDecision" target="ChooseAnother">
          <mxGeometry relative="1" as="geometry" />
        </mxCell>
        <mxCell id="EdgeChooseAnother" style="edgeStyle=orthogonalEdgeStyle;html=1;" edge="1" parent="1" source="ChooseAnother" target="ChooseBook">
          <mxGeometry relative="1" as="geometry" />
        </mxCell>
        <mxCell id="EdgeRegisterIssue" style="edgeStyle=orthogonalEdgeStyle;html=1;" edge="1" parent="1" source="RegisterIssue" target="ReceiveBook">
          <mxGeometry relative="1" as="geometry" />
        </mxCell>
        <mxCell id="EdgeReceiveBook" style="edgeStyle=orthogonalEdgeStyle;html=1;" edge="1" parent="1" source="ReceiveBook" target="End">
          <mxGeometry relative="1" as="geometry" />
        </mxCell>
      </root>
    </mxGraphModel>
  </diagram>
</mxfile>
